<?xml version="1.0" encoding="utf-8"?>
<!-- Generator: Adobe Illustrator 21.0.0, SVG Export Plug-In . SVG Version: 6.00 Build 0)  -->
<svg version="1.1" id="Layer_1" xmlns="http://www.w3.org/2000/svg" xmlns:xlink="http://www.w3.org/1999/xlink" x="0px" y="0px"
	 viewBox="0 0 291.1 190.3" style="enable-background:new 0 0 291.1 190.3;" xml:space="preserve">
<style type="text/css">
	.st0{display:none;}
	.st1{display:inline;}
	.st2{fill:#D51C3A;}
	.st3{fill:#FFFFFF;}
	.st4{font-family:'ArialMT';}
	.st5{font-size:35.0005px;}
	.st6{fill:#D41C3A;}
</style>
<g id="Calque_1" class="st0">
	<g id="Calque_1_1_" class="st1">
		<g>
			<g>
				<path class="st2" d="M112.9,154V0H0v187.1l95.4-11.7C95.4,175.4,112.9,172.7,112.9,154"/>
				<path class="st3" d="M48.8,151l-0.4,8c0,0.8-0.1,2.2-1.7,2.4c-0.1,0-0.2,0-0.2,0c-0.4,0-0.7-0.1-1-0.4c-0.4-0.4-0.4-1.2-0.4-1.8
					l0.4-7.9l-6.7,0.8l-0.5,8.8c-0.1,1.7,0.3,3.1,1.3,4.1c1.1,1.2,3,1.9,5.3,1.9c0.4,0,0.9,0,1.4-0.1c6.3-0.8,8.7-4.9,8.9-8.1
					l0.5-8.7L48.8,151z"/>
			</g>
			<polygon class="st3" points="58.4,149.8 57.6,165.2 64.4,164.4 65.2,149 			"/>
			<g>
				<path class="st3" d="M61.3,147c0.2,0,0.4,0,0.6,0c1.9-0.2,3.9-1.4,4.1-4c0-0.8-0.2-1.5-0.6-2c-0.5-0.6-1.3-0.9-2.3-0.8
					c-0.2,0-0.4,0-0.6,0c-2.3,0.3-3.9,1.9-4,3.9c0,0.9,0.2,1.6,0.6,2.1C59.6,146.9,60.6,147,61.3,147"/>
				<path class="st3" d="M100.4,144.7l-6.9,0.9l-4.1,6.5l-0.8,0.1l0.9-16.3l-4.4,0.5c0,0-1.1,0.1-1.8,0.9l0,0
					c-0.7,0.7-0.8,1.9-0.8,1.9l-1.3,23.2l6.8-0.8l0.3-5.9l0.7-0.1l3.1,4.3c0.1,0.1,0.8,1,2.3,1c0.1,0,0.3,0,0.4,0l5.2-0.6l-5.3-7.2
					L100.4,144.7z"/>
				<path class="st3" d="M25.4,162.8c-0.3,0.1-1,0.3-1.4,0.4c-0.2,0-0.3,0-0.4,0c-1,0-1.9-0.4-2.5-1.1c-0.8-0.8-1.2-2.1-1.1-3.4
					c0.1-2.8,2-4.9,4.6-5.2c1.3-0.2,2.4,0.2,3.2,1.1c0.7,0.8,1.1,2,1,3.3c0,0.7-0.2,1.2-0.3,1.7l-5,0.7l1.5,1.4l0.9,0.9L25.4,162.8z
					 M33.7,164.1l0.2-0.3c1.4-2.1,2.2-4.4,2.3-7c0.2-3.1-0.6-5.6-2.2-7.4c-1.7-1.8-4.1-2.7-7.2-2.7c-0.5,0-1.1,0-1.7,0.1
					c-6.9,0.8-12.1,6.3-12.5,13.1c-0.2,3,0.6,5.5,2.3,7.3c1.6,1.8,4.1,2.8,6.9,2.7c0.5,0,0.9,0,1.4-0.1c2.2-0.3,4.2-0.9,5.9-1.8
					l0.2-0.1l1.9,1.9c0,0,0.7,0.9,1.6,1.3c0.6,0.2,1.2,0.3,1.6,0.3c0.2,0,0.4,0,0.4,0l4.9-0.7L33.7,164.1z"/>
				<path class="st3" d="M55.3,90.3c-11.8,0-20.1-13.3-20.1-27.5s8.2-27.5,20.1-27.5c11.8,0,20.1,13.3,20.1,27.5
					C75.3,77.1,67.1,90.3,55.3,90.3 M103.3,104.4c-11.9,8.4-25.4,5.4-33.8,2.1c18-6.1,30.2-23.3,30.2-43.7c0-25.4-19.4-46-44.4-46
					s-44.4,20.6-44.4,46c0,16.2,7.4,30.4,19.8,38.6c-7.9,2-14,5.6-17.9,9.1l5.4,9c3.2-1.7,13.4-5.7,25.4-1.5
					c13.2,4.7,19.6,9.3,31.9,10c21.4,1.3,27.9-15.3,29.2-22.7L103.3,104.4z"/>
				<path class="st3" d="M78.5,162.3L78.5,162.3L78.5,162.3L78.5,162.3"/>
				<path class="st3" d="M72.8,155.6c0,0.6,0,1.1,0.2,1.5c0.1,0.2,0.2,0.4,0.4,0.6c0.6,0.7,1.6,0.8,2.3,0.8c0.2,0,0.4,0,0.6,0
					c0.9-0.1,1.9-0.5,2.7-1.1l-0.5,4.9l0,0c-1.2,0.6-2.5,1-4,1.2c-0.3,0-0.7,0.1-1,0.1c-2,0-3.8-0.7-5-1.9c-1.2-1.3-1.7-3.1-1.6-5.2
					c0.1-1.8,0.7-3.4,1.6-4.8c1.6-2.4,4.2-4.1,7.3-4.5c0.4-0.1,0.8-0.1,1.2-0.1c1,0,1.8,0.1,2.6,0.4l-0.3,4.7
					c-0.5-0.3-1.2-0.5-1.9-0.5c-0.2,0-0.4,0-0.6,0c-0.5,0.1-1,0.2-1.4,0.4C73.9,152.6,72.9,154,72.8,155.6"/>
				<path class="st3" d="M102.3,125.6c0.3,0,0.5-0.1,0.5-0.4c0-0.2-0.2-0.4-0.5-0.4h-0.6v0.7L102.3,125.6L102.3,125.6z M101.2,124.6
					c0-0.2,0.1-0.3,0.3-0.3h0.9c0.6,0,1.1,0.3,1.1,0.9c0,0.4-0.2,0.7-0.5,0.8l0.4,0.5c0.1,0.1,0.1,0.1,0.1,0.2
					c0,0.2-0.1,0.3-0.3,0.3c-0.1,0-0.2-0.1-0.3-0.1l-0.6-0.8h-0.4v0.6c0,0.2-0.1,0.3-0.3,0.3s-0.3-0.1-0.3-0.3L101.2,124.6
					L101.2,124.6z M104.4,125.7L104.4,125.7c0-1.3-1-2.3-2.2-2.3c-1.3,0-2.2,1-2.2,2.3l0,0c0,1.2,1,2.3,2.2,2.3
					C103.5,127.9,104.4,126.9,104.4,125.7 M99.7,125.7L99.7,125.7c0-1.4,1.1-2.6,2.5-2.6s2.5,1.2,2.5,2.5l0,0c0,1.4-1.1,2.6-2.5,2.6
					S99.7,127.1,99.7,125.7"/>
			</g>
		</g>
	</g>
	<g id="Calque_3" class="st1">
		<g>
			<path d="M143.1,91.3c-0.1,1.6-0.2,2.9-0.4,3.8c-0.2,1-0.6,1.8-1.2,2.6c-0.5,0.6-1,1.1-1.6,1.5c-0.6,0.4-1.2,0.8-1.9,1
				c-0.6,0.3-1.3,0.5-1.9,0.6c-0.6,0.1-1.2,0.2-1.7,0.3c-0.3,0-0.6,0.1-1.1,0.1s-1,0-1.6,0s-1.2-0.1-1.8-0.3
				c-0.6-0.1-1.2-0.4-1.8-0.7c-0.3-0.1-0.5-0.3-0.8-0.6c-0.3-0.3-0.6-0.6-0.8-0.9c-0.3-0.4-0.5-0.8-0.7-1.3s-0.3-1-0.4-1.7
				c0-0.2,0-0.5-0.1-1s0-0.9,0-1.4l0.6-13.7l6.6-0.8L132,92.7c0,0.1,0,0.3,0,0.7c0,0.4,0,0.7,0,1c0,0.4,0.2,0.7,0.4,1
				c0.2,0.3,0.5,0.4,0.7,0.6c0.3,0.1,0.6,0.2,0.9,0.3s0.7,0,1,0c0.7-0.1,1.2-0.3,1.5-0.5c0.4-0.3,0.7-0.6,0.8-1
				c0.2-0.4,0.3-0.8,0.4-1.2s0.1-0.9,0.1-1.3l0.6-14l5.2-0.6L143.1,91.3z"/>
			<path d="M151.2,82.5l-0.1,2.7c0.1-0.3,0.2-0.7,0.4-1.1c0.2-0.4,0.5-0.8,1-1.2c0.6-0.5,1.2-0.9,1.9-1.1c0.7-0.2,1.2-0.4,1.7-0.4
				c1.4-0.2,2.6,0.1,3.5,0.7s1.4,1.5,1.6,2.7c0,0.2,0,0.4,0.1,0.7c0,0.3,0,0.6,0,0.9l-0.5,11.3l-6.1,0.8l0.4-9.9c0-0.2,0-0.4,0-0.6
				c0-0.2,0-0.5,0-0.6c0-0.3-0.2-0.6-0.4-0.9c-0.2-0.3-0.6-0.4-1.2-0.3c-0.7,0.1-1.2,0.4-1.5,0.9s-0.5,1.2-0.5,2l-0.4,9.9l-6,0.7
				l0.7-16.5L151.2,82.5z"/>
			<path d="M185.2,77.8c-0.3,0-0.6,0-0.8,0s-0.4,0-0.7,0.1c-0.8,0.1-1.4,0.3-1.7,0.7s-0.5,0.6-0.6,0.9c0.3,0.1,0.6,0.3,0.9,0.5
				c0.3,0.2,0.6,0.4,0.9,0.7c0.3,0.3,0.5,0.6,0.7,1s0.3,0.9,0.4,1.4c0.1,0.8,0,1.6-0.3,2.3c-0.3,0.7-0.7,1.3-1.2,1.8
				c-0.2,0.2-0.5,0.4-0.8,0.7c-0.3,0.2-0.6,0.4-1.1,0.6c-0.4,0.2-0.9,0.3-1.5,0.5c-0.6,0.1-1.3,0.3-2.1,0.4c-0.1,0-0.3,0-0.6,0
				s-0.5,0-0.8,0.1c-0.3,0-0.6,0-0.8,0.1c-0.3,0-0.4,0-0.5,0c-0.4,0.1-0.7,0.2-0.9,0.5c-0.2,0.3-0.3,0.5-0.3,0.8
				c0,0.2,0.1,0.4,0.2,0.5s0.3,0.2,0.4,0.2c0.2,0,0.3,0.1,0.5,0.1c0.1,0,0.2,0,0.3,0l4.9-0.4c0.7-0.1,1.4,0,2.1,0.1s1.2,0.3,1.7,0.7
				c0.5,0.3,0.9,0.7,1.2,1.2c0.3,0.5,0.5,1.1,0.6,1.8c0.1,0.5,0,1-0.1,1.5s-0.3,0.9-0.5,1.4c-0.2,0.4-0.5,0.8-0.8,1.2
				c-0.3,0.3-0.7,0.6-1,0.9c-0.3,0.2-0.6,0.3-0.9,0.5c-0.3,0.2-0.8,0.3-1.3,0.5c-0.5,0.2-1.1,0.3-1.8,0.5c-0.7,0.1-1.5,0.3-2.4,0.4
				c-1.4,0.2-2.7,0.3-3.8,0.2c-1.1,0-2-0.1-2.8-0.4c-0.7-0.2-1.2-0.5-1.7-1s-0.8-1.1-0.8-1.7c-0.1-0.5,0-0.9,0.1-1.2
				c0.1-0.3,0.3-0.7,0.6-0.9c0.3-0.3,0.5-0.5,0.9-0.7c0.4-0.2,0.6-0.4,0.9-0.6c-0.4-0.2-0.7-0.5-1.1-0.8c-0.4-0.3-0.6-0.9-0.7-1.6
				c-0.2-1.8,0.9-3.2,3.5-4.3c-0.1-0.1-0.3-0.2-0.6-0.3c-0.3-0.1-0.6-0.3-0.8-0.6c-0.3-0.3-0.5-0.6-0.8-1c-0.2-0.4-0.4-0.9-0.4-1.5
				c-0.1-0.9,0-1.7,0.4-2.5c0.4-0.8,0.9-1.4,1.6-1.9c0.8-0.5,1.6-0.9,2.6-1.2c1-0.3,1.9-0.5,2.8-0.6c0.6-0.1,1.1-0.1,1.4-0.1
				s0.7,0,1.1,0.1c0-0.4,0.1-0.9,0.2-1.5c0.1-0.5,0.3-1.1,0.5-1.6c0.3-0.5,0.7-0.9,1.3-1.3c0.6-0.4,1.4-0.7,2.4-0.8
				c0.3,0,0.6-0.1,0.9-0.1s0.6,0,0.8,0L185.2,77.8z M180.3,96.4c0-0.2-0.1-0.3-0.2-0.4c-0.1-0.1-0.3-0.2-0.5-0.2s-0.6,0-0.9,0
				s-0.9,0.1-1.5,0.1c-0.7,0.1-1.3,0.1-1.7,0.1c-0.4,0-0.8,0-1,0.1c-0.3,0-0.5,0-0.6,0s-0.3,0-0.5,0c-0.2,0.2-0.4,0.3-0.6,0.5
				s-0.2,0.4-0.2,0.7c0,0.3,0.2,0.5,0.6,0.6c0.3,0.1,0.7,0.2,1.2,0.2c0.4,0,0.9,0,1.4,0s0.8-0.1,1.1-0.1c0.7-0.1,1.3-0.2,1.8-0.3
				c0.5-0.1,0.8-0.2,1.1-0.4c0.3-0.1,0.5-0.3,0.5-0.4S180.4,96.6,180.3,96.4z M178.8,84c0-0.2,0-0.5-0.1-0.7
				c-0.1-0.2-0.2-0.5-0.3-0.6c-0.2-0.2-0.4-0.3-0.6-0.4c-0.3-0.1-0.6-0.1-0.9-0.1c-0.5,0.1-0.9,0.2-1.2,0.5
				c-0.3,0.3-0.5,0.6-0.6,0.9s-0.2,0.6-0.2,0.9s0,0.4,0,0.5c0.1,0.6,0.3,1,0.7,1.2c0.4,0.2,0.8,0.3,1.3,0.2c0.4,0,0.7-0.2,1-0.3
				c0.2-0.2,0.4-0.4,0.6-0.6c0.1-0.2,0.2-0.5,0.3-0.7C178.8,84.4,178.8,84.1,178.8,84z"/>
			<path d="M202.5,83.2c0.2,1.7,0.1,3.2-0.3,4.5c-0.4,1.3-1.1,2.4-1.9,3.3s-1.8,1.6-2.9,2.1s-2.2,0.8-3.3,0.9c-1,0.1-2,0.1-3-0.1
				c-1-0.2-1.9-0.5-2.7-1.1c-0.8-0.5-1.5-1.2-2.1-2.1s-0.9-2-1.1-3.3c-0.2-1.4-0.1-2.7,0.2-4c0.3-1.3,0.9-2.3,1.6-3.2
				s1.7-1.7,2.7-2.3c1.1-0.6,2.3-1,3.6-1.1c1.4-0.2,2.6-0.1,3.6,0.2c1.1,0.3,2,0.8,2.7,1.4c0.8,0.6,1.3,1.3,1.8,2.1
				C202.1,81.4,202.4,82.3,202.5,83.2z M191.7,87.9c0,0.2,0.1,0.5,0.2,0.8c0.1,0.3,0.2,0.5,0.4,0.8c0.2,0.2,0.4,0.4,0.7,0.6
				c0.3,0.1,0.6,0.2,1,0.1c0.3,0,0.6-0.2,0.9-0.4c0.3-0.2,0.6-0.6,0.8-1.2c0.1-0.3,0.2-0.7,0.3-1.2c0.1-0.5,0.1-0.9,0.2-1.4
				c0-0.5,0-1,0-1.5s0-1-0.1-1.4c0-0.2-0.1-0.4-0.1-0.7c-0.1-0.3-0.2-0.6-0.3-0.8c-0.2-0.2-0.4-0.4-0.7-0.6s-0.6-0.2-1-0.2
				s-0.6,0.2-0.9,0.3c-0.2,0.2-0.4,0.4-0.5,0.6c-0.1,0.2-0.2,0.4-0.3,0.7c-0.1,0.2-0.1,0.4-0.1,0.5c-0.1,0.3-0.1,0.7-0.2,1.2
				s-0.1,0.9-0.1,1.4s0,0.9,0,1.3C191.7,87.2,191.7,87.6,191.7,87.9z"/>
			<path d="M219.3,90.5l-5.8,0.7l0.1-3.1c-0.1,0.3-0.3,0.7-0.5,1.1s-0.5,0.8-0.9,1.2c-0.4,0.4-0.9,0.8-1.4,1.1
				c-0.6,0.3-1.3,0.5-2.1,0.6s-1.5,0.1-2.1-0.1c-0.6-0.2-1.1-0.4-1.5-0.8c-0.4-0.3-0.7-0.7-0.9-1.2s-0.3-0.9-0.4-1.3
				c0-0.2,0-0.4,0-0.6c0-0.3,0-0.5,0-0.8c0-0.3,0-0.5,0-0.7s0-0.4,0-0.5l0.5-10.3l6.2-0.8l-0.4,9.4c0,0.3,0,0.6,0,0.9
				c0,0.3,0,0.6,0,0.7c0,0.1,0,0.2,0.1,0.3c0,0.1,0.1,0.3,0.2,0.4s0.2,0.2,0.4,0.3c0.2,0.1,0.4,0.1,0.7,0.1c0.4-0.1,0.8-0.2,1.1-0.5
				c0.3-0.3,0.5-0.6,0.7-1s0.3-0.8,0.4-1.3s0.1-1,0.1-1.5l0.4-8.2L220,74L219.3,90.5z M214.9,72l-2.6-1.8l-2.8,2.4l-3.6,0.1l6.6-5.9
				l6.1,4.4L214.9,72z"/>
			<path d="M231.4,76.7l-2.9,0.4l-0.3,6c0,0.2,0,0.4,0,0.6c0,0.2,0,0.4,0,0.5c0.1,0.5,0.3,0.8,0.6,0.9c0.3,0.1,0.7,0.1,1,0.1
				s0.6-0.1,0.8-0.2s0.5-0.1,0.7-0.2l-0.2,4.3c-0.4,0.1-0.9,0.3-1.4,0.4s-1.1,0.3-1.9,0.3c-0.6,0.1-1.1,0.1-1.6,0.1
				c-0.4,0-0.8-0.1-1.1-0.2s-0.6-0.2-0.9-0.4c-0.3-0.2-0.5-0.3-0.7-0.6c-0.3-0.3-0.5-0.6-0.8-1c-0.2-0.4-0.4-1-0.5-1.7
				c0-0.1,0-0.1,0-0.2c0-0.1,0-0.2,0-0.4c0-0.2,0-0.4,0-0.7c0-0.3,0-0.6,0-1.1l0.3-6l-2.2,0.3l0.2-4.1l2.7-0.3l0.6-4.6l5.2-1.1
				l-0.2,5l2.9-0.4L231.4,76.7z"/>
		</g>
		<g>
			<path d="M141.9,131.1l-5.7,0.7l0.1-2.5c-0.4,0.8-0.8,1.4-1.3,1.9s-0.9,0.8-1.3,1s-0.8,0.4-1.1,0.5c-0.3,0.1-0.5,0.1-0.7,0.1
				c-0.4,0.1-0.9,0-1.6-0.1c-0.6-0.1-1.3-0.4-1.9-0.8c-0.6-0.4-1.2-1-1.7-1.8c-0.5-0.8-0.8-1.9-1-3.2c-0.1-1.2-0.1-2.4,0.1-3.7
				c0.2-1.3,0.5-2.5,1.1-3.6c0.6-1.1,1.2-2,2.1-2.8s2-1.2,3.2-1.4c0.7-0.1,1.3-0.1,1.7,0c0.5,0.1,0.9,0.2,1.2,0.4
				c0.3,0.2,0.6,0.4,0.8,0.7c0.2,0.3,0.4,0.5,0.5,0.7l0.3-7.7l6.2-0.8L141.9,131.1z M136.2,121.2c0-0.5-0.1-0.9-0.2-1.2
				c-0.2-0.3-0.3-0.5-0.6-0.6c-0.3-0.1-0.4-0.2-0.6-0.2s-0.4,0-0.5,0c-0.5,0.1-0.9,0.3-1.2,0.6c-0.3,0.4-0.5,0.9-0.7,1.5
				c-0.1,0.3-0.2,0.8-0.2,1.3s-0.1,1-0.1,1.5s0,0.9,0,1.4c0,0.4,0,0.7,0.1,1c0,0.1,0,0.2,0.1,0.5c0.1,0.2,0.1,0.5,0.3,0.7
				c0.1,0.2,0.3,0.4,0.6,0.6c0.3,0.2,0.6,0.2,1,0.2c0.4-0.1,0.7-0.2,1-0.4c0.2-0.2,0.4-0.4,0.6-0.7c0.1-0.3,0.2-0.5,0.3-0.8
				c0.1-0.3,0.1-0.5,0.1-0.7L136.2,121.2L136.2,121.2z"/>
			<path d="M149.8,123.1c0,0.1,0,0.3,0,0.5s0,0.4,0,0.5c0,0.4,0.2,0.7,0.3,1c0.2,0.3,0.4,0.5,0.6,0.6c0.3,0.1,0.5,0.2,0.8,0.3
				c0.3,0,0.6,0,0.9,0c0.5-0.1,0.9-0.2,1.2-0.4c0.3-0.2,0.5-0.4,0.7-0.6c0.2-0.2,0.3-0.5,0.4-0.7s0.2-0.4,0.2-0.6l5.5,0.2
				c-0.1,0.3-0.2,0.6-0.4,1c-0.2,0.4-0.4,0.7-0.6,1.2c-0.3,0.4-0.6,0.8-1,1.3c-0.4,0.4-0.9,0.9-1.6,1.3c-0.4,0.3-0.9,0.6-1.6,0.9
				c-0.7,0.3-1.6,0.6-2.8,0.7c-1.2,0.1-2.3,0.1-3.3-0.1s-2-0.6-2.7-1.2c-0.8-0.6-1.4-1.3-2-2.2c-0.5-0.9-0.9-1.9-1-3.1
				s-0.1-2.4,0.2-3.6s0.8-2.3,1.5-3.2c0.7-1,1.6-1.8,2.7-2.4c1.1-0.7,2.4-1.1,3.9-1.3c1.3-0.2,2.5-0.1,3.5,0.2
				c1.1,0.3,2,0.7,2.7,1.3c0.8,0.6,1.4,1.4,1.8,2.3c0.4,0.9,0.8,1.9,0.9,3.1c0,0.4,0.1,0.7,0.1,1s0,0.6,0,0.9L149.8,123.1z
				 M154.7,119.4c0-0.1,0-0.2,0-0.4c0-0.1,0-0.3,0-0.4c0-0.2-0.1-0.4-0.2-0.7c-0.1-0.2-0.2-0.5-0.4-0.7c-0.2-0.2-0.4-0.4-0.7-0.5
				c-0.3-0.1-0.6-0.1-1-0.1c-0.1,0-0.3,0.1-0.6,0.1c-0.3,0.1-0.5,0.2-0.8,0.5c-0.3,0.2-0.5,0.6-0.7,1c-0.2,0.4-0.4,1-0.4,1.7
				L154.7,119.4z"/>
			<path d="M176.3,126.9l-6.1,0.8l1-22.3l6.2-0.8L176.3,126.9z"/>
			<path d="M184.2,118.9c0,0.1,0,0.3,0,0.5c0,0.2,0,0.4,0,0.5c0,0.4,0.2,0.7,0.3,1c0.2,0.3,0.4,0.5,0.6,0.6c0.3,0.1,0.5,0.2,0.8,0.3
				c0.3,0,0.6,0,0.9,0c0.5-0.1,0.9-0.2,1.2-0.4c0.3-0.2,0.5-0.4,0.7-0.6c0.2-0.2,0.3-0.5,0.4-0.7c0.1-0.2,0.2-0.4,0.2-0.6l5.5,0.2
				c-0.1,0.3-0.2,0.6-0.4,1s-0.4,0.7-0.6,1.2c-0.3,0.4-0.6,0.8-1,1.3c-0.4,0.4-0.9,0.9-1.6,1.3c-0.4,0.3-0.9,0.6-1.6,0.9
				s-1.6,0.6-2.8,0.7c-1.2,0.1-2.3,0.1-3.3-0.1s-2-0.6-2.7-1.2c-0.8-0.6-1.4-1.3-2-2.2s-0.9-1.9-1-3.1s-0.1-2.4,0.2-3.6
				s0.8-2.3,1.5-3.2c0.7-1,1.6-1.8,2.7-2.4c1.1-0.7,2.4-1.1,3.9-1.3c1.3-0.2,2.5-0.1,3.5,0.2c1,0.3,2,0.7,2.7,1.3
				c0.8,0.6,1.4,1.4,1.8,2.3c0.5,0.9,0.8,1.9,0.9,3.1c0,0.4,0.1,0.7,0.1,1s0,0.6,0,0.9L184.2,118.9z M190.4,100.4l1.5,2.9l-7.3,3.7
				l-1.1-2L190.4,100.4z M189.1,115.2c0-0.1,0-0.2,0-0.4c0-0.1,0-0.3,0-0.4c0-0.2-0.1-0.4-0.2-0.7c-0.1-0.2-0.2-0.5-0.4-0.7
				c-0.2-0.2-0.4-0.4-0.7-0.5s-0.6-0.1-1-0.1c-0.1,0-0.3,0.1-0.6,0.1c-0.3,0.1-0.5,0.2-0.8,0.5s-0.5,0.6-0.7,1s-0.4,1-0.4,1.7
				L189.1,115.2z"/>
			<path d="M212.7,105.4c-0.3,0-0.6,0-0.8,0s-0.4,0-0.7,0.1c-0.8,0.1-1.4,0.3-1.7,0.7c-0.3,0.3-0.5,0.6-0.6,0.9
				c0.3,0.1,0.6,0.3,0.9,0.5s0.6,0.4,0.9,0.7c0.3,0.3,0.5,0.6,0.7,1c0.2,0.4,0.3,0.9,0.4,1.4c0.1,0.8,0,1.6-0.3,2.3
				s-0.7,1.3-1.2,1.8c-0.2,0.2-0.5,0.4-0.8,0.7c-0.3,0.2-0.6,0.4-1.1,0.6c-0.4,0.2-0.9,0.3-1.5,0.5c-0.6,0.1-1.3,0.3-2.1,0.4
				c-0.1,0-0.3,0-0.6,0s-0.5,0-0.8,0.1c-0.3,0-0.6,0-0.8,0.1c-0.3,0-0.4,0-0.5,0c-0.4,0.1-0.7,0.2-0.9,0.5s-0.3,0.5-0.3,0.8
				c0,0.2,0.1,0.4,0.2,0.5c0.1,0.1,0.3,0.2,0.4,0.2c0.2,0,0.3,0.1,0.5,0.1c0.1,0,0.2,0,0.3,0l4.9-0.4c0.7-0.1,1.4,0,2.1,0.1
				c0.6,0.1,1.2,0.3,1.7,0.7c0.5,0.3,0.9,0.7,1.2,1.2c0.3,0.5,0.5,1.1,0.6,1.8c0.1,0.5,0,1-0.1,1.5s-0.3,0.9-0.5,1.4
				c-0.2,0.4-0.5,0.8-0.8,1.2s-0.7,0.6-1,0.9c-0.3,0.2-0.6,0.3-0.9,0.5s-0.8,0.3-1.3,0.5s-1.1,0.3-1.8,0.5c-0.7,0.1-1.5,0.3-2.4,0.4
				c-1.4,0.2-2.7,0.3-3.8,0.2c-1.1,0-2-0.1-2.8-0.4c-0.7-0.2-1.2-0.5-1.7-1s-0.8-1.1-0.8-1.7c-0.1-0.5,0-0.9,0.1-1.2
				c0.1-0.3,0.3-0.7,0.6-0.9c0.3-0.3,0.5-0.5,0.9-0.7c0.3-0.2,0.6-0.4,0.9-0.6c-0.4-0.2-0.7-0.5-1.1-0.8c-0.4-0.3-0.6-0.9-0.7-1.6
				c-0.2-1.8,0.9-3.2,3.5-4.3c-0.1-0.1-0.3-0.2-0.6-0.3c-0.3-0.1-0.5-0.3-0.8-0.6c-0.3-0.3-0.5-0.6-0.8-1c-0.2-0.4-0.4-0.9-0.4-1.5
				c-0.1-0.9,0-1.7,0.4-2.5c0.4-0.8,0.9-1.4,1.6-1.9c0.8-0.5,1.6-0.9,2.6-1.2c1-0.3,1.9-0.5,2.8-0.6c0.6-0.1,1.1-0.1,1.4-0.1
				s0.7,0,1.1,0.1c0-0.4,0.1-0.9,0.2-1.5c0.1-0.5,0.3-1.1,0.5-1.6c0.3-0.5,0.7-0.9,1.3-1.3s1.4-0.7,2.4-0.8c0.3,0,0.6-0.1,0.9-0.1
				s0.6,0,0.8,0L212.7,105.4z M207.9,124.1c0-0.2-0.1-0.3-0.2-0.4c-0.1-0.1-0.3-0.2-0.5-0.2s-0.6,0-1,0s-0.9,0.1-1.5,0.1
				c-0.7,0.1-1.3,0.1-1.7,0.1s-0.8,0-1,0.1c-0.3,0-0.5,0-0.6,0c-0.2,0-0.3,0-0.5,0c-0.2,0.2-0.4,0.3-0.6,0.5
				c-0.2,0.2-0.2,0.4-0.2,0.7s0.2,0.5,0.6,0.6c0.3,0.1,0.7,0.2,1.2,0.2c0.4,0,0.9,0,1.4,0s0.8-0.1,1.1-0.1c0.7-0.1,1.3-0.2,1.8-0.3
				s0.8-0.2,1.1-0.4c0.3-0.1,0.5-0.3,0.5-0.4C207.9,124.5,207.9,124.3,207.9,124.1z M206.3,111.6c0-0.2,0-0.5-0.1-0.7
				c-0.1-0.2-0.2-0.5-0.3-0.6c-0.2-0.2-0.4-0.3-0.6-0.4c-0.3-0.1-0.6-0.1-0.9-0.1c-0.5,0.1-0.9,0.2-1.2,0.5
				c-0.3,0.3-0.5,0.6-0.6,0.9s-0.2,0.6-0.2,0.9s0,0.4,0,0.5c0.1,0.6,0.3,1,0.7,1.2c0.4,0.2,0.8,0.3,1.3,0.2c0.4,0,0.7-0.2,1-0.3
				c0.2-0.2,0.4-0.4,0.6-0.6c0.1-0.2,0.2-0.5,0.3-0.7C206.3,112,206.3,111.8,206.3,111.6z"/>
			<path d="M219,114.6c0,0.1,0,0.3,0,0.5s0,0.4,0,0.5c0,0.4,0.2,0.7,0.3,1c0.2,0.3,0.4,0.5,0.6,0.6c0.3,0.1,0.5,0.2,0.8,0.3
				c0.3,0,0.6,0,0.9,0c0.5-0.1,0.9-0.2,1.2-0.4c0.3-0.2,0.5-0.4,0.7-0.6s0.3-0.5,0.4-0.7s0.2-0.4,0.2-0.6l5.5,0.2
				c-0.1,0.3-0.2,0.6-0.4,1c-0.2,0.4-0.4,0.7-0.6,1.2c-0.3,0.4-0.6,0.8-1,1.3c-0.4,0.4-0.9,0.9-1.6,1.3c-0.4,0.3-0.9,0.6-1.6,0.9
				s-1.6,0.6-2.8,0.7c-1.2,0.1-2.3,0.1-3.3-0.1s-2-0.6-2.7-1.2c-0.8-0.6-1.4-1.3-2-2.2c-0.5-0.9-0.9-1.9-1-3.1s-0.1-2.4,0.2-3.6
				c0.3-1.2,0.8-2.3,1.5-3.2c0.7-1,1.6-1.8,2.7-2.4c1.1-0.7,2.4-1.1,3.9-1.3c1.3-0.2,2.5-0.1,3.5,0.2c1.1,0.3,2,0.7,2.7,1.3
				s1.4,1.4,1.8,2.3c0.5,0.9,0.8,1.9,0.9,3.1c0,0.4,0.1,0.7,0.1,1c0,0.3,0,0.6,0,0.9L219,114.6z M224,110.9c0-0.1,0-0.2,0-0.4
				c0-0.1,0-0.3,0-0.4c0-0.2-0.1-0.4-0.2-0.7c-0.1-0.2-0.2-0.5-0.4-0.7c-0.2-0.2-0.4-0.4-0.7-0.5s-0.6-0.1-1-0.1
				c-0.1,0-0.3,0.1-0.6,0.1c-0.3,0.1-0.5,0.2-0.8,0.5c-0.3,0.2-0.5,0.6-0.7,1s-0.4,1-0.4,1.7L224,110.9z"/>
			<path d="M237.4,103l-0.1,2.7c0.1-0.3,0.2-0.7,0.4-1.1s0.5-0.8,1-1.2c0.6-0.5,1.2-0.9,1.9-1.1c0.7-0.2,1.2-0.4,1.7-0.4
				c1.4-0.2,2.6,0.1,3.5,0.7s1.4,1.5,1.6,2.7c0,0.2,0,0.4,0.1,0.7c0,0.3,0,0.6,0,0.9l-0.5,11.3l-6.1,0.8l0.4-9.9c0-0.2,0-0.4,0-0.6
				c0-0.2,0-0.5,0-0.6c0-0.3-0.2-0.6-0.4-0.9c-0.2-0.3-0.6-0.4-1.2-0.3c-0.7,0.1-1.2,0.4-1.5,0.9s-0.5,1.2-0.5,2l-0.4,9.9l-6,0.7
				l0.7-16.5L237.4,103z"/>
			<path d="M264.9,116l-5.7,0.7l0.1-2.5c-0.4,0.8-0.8,1.4-1.3,1.9s-0.9,0.8-1.3,1c-0.4,0.2-0.8,0.4-1.1,0.5
				c-0.3,0.1-0.6,0.1-0.7,0.1c-0.4,0.1-0.9,0-1.6-0.1c-0.6-0.1-1.3-0.4-1.9-0.8c-0.6-0.4-1.2-1-1.7-1.8c-0.5-0.8-0.8-1.9-1-3.2
				c-0.1-1.2-0.1-2.4,0.1-3.7c0.2-1.3,0.5-2.5,1.1-3.6c0.6-1.1,1.2-2,2.1-2.8c0.9-0.8,2-1.2,3.2-1.4c0.7-0.1,1.3-0.1,1.7,0
				s0.9,0.2,1.2,0.4c0.3,0.2,0.6,0.4,0.8,0.7c0.2,0.3,0.4,0.5,0.5,0.7l0.3-7.7l6.2-0.8L264.9,116z M259.2,106.1
				c0-0.5-0.1-0.9-0.2-1.2c-0.1-0.3-0.3-0.5-0.6-0.6c-0.2-0.1-0.4-0.2-0.6-0.2s-0.4,0-0.5,0c-0.5,0.1-0.9,0.3-1.2,0.6
				c-0.3,0.4-0.5,0.9-0.7,1.5c-0.1,0.3-0.2,0.8-0.2,1.3c-0.1,0.5-0.1,1-0.1,1.5s0,0.9,0,1.4c0,0.4,0,0.7,0.1,1c0,0.1,0,0.2,0.1,0.5
				c0.1,0.2,0.1,0.5,0.3,0.7c0.1,0.2,0.3,0.4,0.6,0.6s0.6,0.2,1,0.2c0.4-0.1,0.7-0.2,1-0.4c0.2-0.2,0.4-0.4,0.6-0.7
				c0.1-0.3,0.2-0.5,0.3-0.8c0.1-0.3,0.1-0.5,0.1-0.7L259.2,106.1z"/>
			<path d="M272.8,108c0,0.1,0,0.3,0,0.5c0,0.2,0,0.4,0,0.5c0,0.4,0.2,0.7,0.3,1c0.2,0.3,0.4,0.5,0.6,0.6c0.3,0.1,0.5,0.2,0.8,0.3
				c0.3,0,0.6,0,0.9,0c0.5-0.1,0.9-0.2,1.2-0.4c0.3-0.2,0.5-0.4,0.7-0.6c0.2-0.2,0.3-0.5,0.4-0.7s0.2-0.4,0.2-0.6l5.5,0.2
				c-0.1,0.3-0.2,0.6-0.4,1c-0.2,0.4-0.4,0.7-0.6,1.2c-0.3,0.4-0.6,0.8-1,1.3c-0.4,0.4-0.9,0.9-1.6,1.3c-0.4,0.3-0.9,0.6-1.6,0.9
				s-1.6,0.6-2.8,0.7c-1.2,0.1-2.3,0.1-3.3-0.1s-1.9-0.6-2.7-1.2c-0.8-0.6-1.4-1.3-2-2.2c-0.5-0.9-0.9-1.9-1-3.1
				c-0.1-1.2-0.1-2.4,0.2-3.6c0.3-1.2,0.8-2.3,1.5-3.2c0.7-1,1.6-1.8,2.7-2.4c1.1-0.7,2.4-1.1,3.9-1.3c1.3-0.2,2.5-0.1,3.5,0.2
				c1.1,0.3,2,0.7,2.7,1.3c0.8,0.6,1.4,1.4,1.8,2.3c0.5,0.9,0.8,1.9,0.9,3.1c0,0.4,0.1,0.7,0.1,1s0,0.6,0,0.9L272.8,108z
				 M277.8,104.3c0-0.1,0-0.2,0-0.4c0-0.1,0-0.3,0-0.4c0-0.2-0.1-0.4-0.2-0.7c-0.1-0.2-0.2-0.5-0.4-0.7c-0.2-0.2-0.4-0.4-0.7-0.5
				c-0.3-0.1-0.6-0.1-1-0.1c-0.1,0-0.3,0.1-0.6,0.1c-0.3,0.1-0.5,0.2-0.8,0.5s-0.5,0.6-0.7,1s-0.4,1-0.4,1.7L277.8,104.3z"/>
			<path d="M290.9,112.8l-6,0.7l0.2-5.9l6-0.7L290.9,112.8z"/>
		</g>
	</g>
	<g id="Calque_2" class="st1">
		<text transform="matrix(0.9925 -0.1219 0.1219 0.9925 124.1212 102.692)" class="st4 st5"> </text>
		<path d="M141.1,100.5l-15.8,1.9l1-23.6l7-0.9l-0.8,18l8.8-1.1L141.1,100.5z"/>
		<path d="M147.5,92.3c0,0.1,0,0.3,0,0.5c0,0.2,0,0.4,0,0.6c0.1,0.4,0.2,0.8,0.4,1c0.2,0.3,0.4,0.5,0.7,0.7c0.3,0.2,0.6,0.3,0.9,0.3
			s0.6,0,0.9,0c0.5-0.1,0.9-0.2,1.2-0.4c0.3-0.2,0.6-0.4,0.8-0.7c0.2-0.2,0.4-0.5,0.5-0.8c0.1-0.3,0.2-0.5,0.2-0.6l5.9,0.2
			c-0.1,0.3-0.2,0.6-0.4,1s-0.4,0.8-0.7,1.2c-0.3,0.4-0.6,0.9-1.1,1.3c-0.4,0.5-1,0.9-1.7,1.4c-0.4,0.3-1,0.6-1.7,1
			c-0.8,0.4-1.7,0.6-2.9,0.8c-1.3,0.2-2.4,0.1-3.5-0.1s-2.1-0.7-2.9-1.3c-0.8-0.6-1.5-1.4-2.1-2.3c-0.6-1-0.9-2.1-1.1-3.3
			c-0.2-1.3-0.1-2.6,0.2-3.8c0.3-1.2,0.9-2.4,1.6-3.4c0.8-1,1.7-1.9,2.9-2.6c1.2-0.7,2.5-1.1,4.1-1.3c1.4-0.2,2.6-0.1,3.8,0.2
			c1.1,0.3,2.1,0.8,2.9,1.4c0.8,0.7,1.5,1.5,2,2.4c0.5,1,0.8,2,1,3.2c0,0.4,0.1,0.7,0.1,1c0,0.3,0,0.6,0,0.9L147.5,92.3z
			 M152.7,88.3c0-0.1,0-0.3,0-0.4c0-0.2,0-0.3,0-0.4c0-0.2-0.1-0.5-0.2-0.7c-0.1-0.3-0.3-0.5-0.5-0.7c-0.2-0.2-0.4-0.4-0.7-0.5
			c-0.3-0.1-0.6-0.2-1.1-0.1c-0.1,0-0.3,0.1-0.6,0.1c-0.3,0.1-0.6,0.2-0.9,0.5c-0.3,0.2-0.5,0.6-0.8,1c-0.2,0.5-0.4,1-0.4,1.8
			L152.7,88.3z"/>
		<path d="M182.5,77.4c-0.3,0-0.6,0-0.8,0c-0.2,0-0.5,0-0.7,0.1c-0.9,0.1-1.5,0.3-1.8,0.7s-0.5,0.7-0.6,1c0.3,0.2,0.6,0.3,1,0.5
			c0.3,0.2,0.7,0.4,0.9,0.7c0.3,0.3,0.5,0.6,0.8,1.1c0.2,0.4,0.4,0.9,0.4,1.5c0.1,0.9,0,1.7-0.3,2.5c-0.3,0.8-0.7,1.4-1.2,1.9
			c-0.3,0.2-0.5,0.5-0.8,0.7s-0.7,0.4-1.1,0.6c-0.4,0.2-1,0.4-1.6,0.5c-0.6,0.1-1.4,0.3-2.2,0.4c-0.1,0-0.3,0-0.6,0s-0.6,0-0.9,0.1
			c-0.3,0-0.6,0-0.9,0.1c-0.3,0-0.5,0-0.5,0c-0.4,0.1-0.8,0.2-1,0.5c-0.2,0.3-0.3,0.6-0.3,0.9c0,0.2,0.1,0.4,0.2,0.5
			c0.1,0.1,0.3,0.2,0.5,0.3c0.2,0,0.3,0.1,0.5,0.1s0.3,0,0.3,0l5.2-0.5c0.8-0.1,1.5,0,2.2,0.1c0.7,0.1,1.3,0.4,1.8,0.7
			c0.5,0.3,1,0.8,1.3,1.3s0.6,1.1,0.7,1.9c0.1,0.6,0,1.1-0.1,1.6s-0.3,1-0.5,1.5s-0.5,0.9-0.9,1.2c-0.3,0.4-0.7,0.7-1.1,0.9
			c-0.3,0.2-0.6,0.4-1,0.5c-0.4,0.2-0.8,0.4-1.3,0.5c-0.5,0.2-1.1,0.3-1.9,0.5c-0.7,0.2-1.6,0.3-2.5,0.4c-1.5,0.2-2.9,0.3-4,0.3
			s-2.1-0.1-3-0.4c-0.7-0.2-1.3-0.6-1.8-1.1s-0.8-1.1-0.9-1.8c-0.1-0.5,0-0.9,0.1-1.3s0.4-0.7,0.6-1c0.3-0.3,0.6-0.5,0.9-0.7
			c0.3-0.2,0.7-0.4,1-0.6c-0.4-0.2-0.8-0.5-1.2-0.9c-0.4-0.4-0.7-0.9-0.8-1.7c-0.2-1.9,1-3.4,3.7-4.6c-0.2-0.1-0.4-0.2-0.7-0.3
			c-0.3-0.1-0.6-0.3-0.9-0.6s-0.6-0.6-0.8-1c-0.2-0.4-0.4-0.9-0.5-1.6c-0.1-0.9,0-1.8,0.5-2.7c0.4-0.9,1-1.5,1.7-2
			c0.8-0.6,1.7-1,2.8-1.3c1-0.3,2-0.5,3-0.6c0.6-0.1,1.2-0.1,1.5-0.1c0.4,0,0.7,0,1.2,0.1c0-0.5,0.1-1,0.2-1.5
			c0.1-0.6,0.3-1.1,0.6-1.7c0.3-0.5,0.8-1,1.4-1.4c0.6-0.4,1.5-0.7,2.5-0.8c0.3,0,0.6-0.1,0.9-0.1s0.6,0,0.8,0L182.5,77.4z
			 M177.4,97.2c0-0.2-0.1-0.4-0.2-0.5c-0.1-0.1-0.3-0.2-0.5-0.2c-0.3,0-0.6,0-1,0s-1,0.1-1.6,0.1c-0.8,0.1-1.4,0.1-1.8,0.2
			c-0.4,0-0.8,0.1-1.1,0.1s-0.5,0-0.7,0s-0.3,0-0.5,0c-0.2,0.2-0.4,0.3-0.6,0.5c-0.2,0.2-0.3,0.4-0.2,0.8c0,0.3,0.2,0.5,0.6,0.7
			c0.4,0.1,0.8,0.2,1.2,0.2c0.5,0,1,0,1.4,0c0.5,0,0.9-0.1,1.1-0.1c0.8-0.1,1.4-0.2,1.9-0.3c0.5-0.1,0.9-0.2,1.2-0.4
			c0.3-0.1,0.5-0.3,0.6-0.5C177.3,97.6,177.4,97.4,177.4,97.2z M175.7,84c0-0.3,0-0.5-0.1-0.8c-0.1-0.3-0.2-0.5-0.3-0.7
			c-0.2-0.2-0.4-0.3-0.7-0.4c-0.3-0.1-0.6-0.1-1-0.1c-0.6,0.1-1,0.2-1.3,0.5c-0.3,0.3-0.5,0.6-0.6,0.9c-0.1,0.3-0.2,0.6-0.2,0.9
			c0,0.3,0,0.5,0,0.6c0.1,0.6,0.3,1,0.8,1.3c0.4,0.2,0.9,0.3,1.4,0.2c0.4-0.1,0.8-0.2,1-0.4c0.3-0.2,0.5-0.4,0.6-0.6
			c0.1-0.2,0.3-0.5,0.3-0.8C175.7,84.4,175.7,84.2,175.7,84z"/>
		<path d="M200.1,83.3c0.2,1.8,0.1,3.4-0.3,4.8c-0.5,1.4-1.1,2.6-2,3.5c-0.9,1-1.9,1.7-3,2.2s-2.3,0.9-3.5,1
			c-1.1,0.1-2.1,0.1-3.2-0.1c-1-0.2-2-0.6-2.9-1.1c-0.9-0.6-1.6-1.3-2.2-2.2c-0.6-0.9-1-2.1-1.2-3.5c-0.2-1.5-0.1-2.9,0.3-4.2
			c0.4-1.3,0.9-2.4,1.7-3.4s1.8-1.8,2.9-2.4c1.2-0.6,2.4-1,3.9-1.2s2.7-0.1,3.9,0.2c1.1,0.3,2.1,0.8,2.9,1.4s1.4,1.4,1.9,2.3
			C199.7,81.4,200,82.3,200.1,83.3z M188.7,88.2c0,0.3,0.1,0.5,0.2,0.8s0.2,0.6,0.4,0.8c0.2,0.3,0.4,0.5,0.7,0.6
			c0.3,0.2,0.7,0.2,1.1,0.1c0.3,0,0.7-0.2,1-0.4c0.3-0.2,0.6-0.6,0.8-1.3c0.1-0.3,0.2-0.8,0.3-1.2c0.1-0.5,0.1-1,0.2-1.5
			c0-0.5,0-1.1,0-1.6s0-1-0.1-1.5c0-0.2-0.1-0.5-0.1-0.8c-0.1-0.3-0.2-0.6-0.4-0.9c-0.2-0.3-0.4-0.5-0.7-0.6
			c-0.3-0.2-0.7-0.2-1.1-0.2s-0.7,0.2-0.9,0.3c-0.2,0.2-0.4,0.4-0.6,0.6c-0.1,0.2-0.3,0.5-0.3,0.7c-0.1,0.2-0.1,0.4-0.1,0.6
			c-0.1,0.3-0.1,0.7-0.2,1.2s-0.1,1-0.1,1.5s0,1,0,1.4C188.6,87.5,188.6,87.9,188.7,88.2z"/>
		<path d="M217.5,91.1l-6.1,0.8l0.1-3.3c-0.1,0.3-0.3,0.7-0.6,1.2c-0.2,0.5-0.6,0.9-1,1.3s-0.9,0.8-1.5,1.2
			c-0.6,0.3-1.3,0.6-2.2,0.7c-0.9,0.1-1.6,0.1-2.3-0.1c-0.6-0.2-1.2-0.5-1.6-0.8c-0.4-0.4-0.7-0.8-0.9-1.2c-0.2-0.5-0.4-0.9-0.4-1.4
			c0-0.2,0-0.4,0-0.7c0-0.3,0-0.5,0-0.8c0-0.3,0-0.5,0-0.8c0-0.2,0-0.4,0-0.5l0.5-10.9l6.6-0.8l-0.4,10c0,0.3,0,0.6,0,0.9
			c0,0.3,0,0.6,0,0.8c0,0.1,0,0.2,0.1,0.3c0,0.1,0.1,0.3,0.2,0.4c0.1,0.1,0.2,0.2,0.4,0.3c0.2,0.1,0.4,0.1,0.7,0.1
			c0.5-0.1,0.8-0.2,1.1-0.5c0.3-0.3,0.5-0.7,0.7-1.1c0.2-0.4,0.3-0.9,0.4-1.4s0.1-1.1,0.2-1.6l0.4-8.7l6.5-0.8L217.5,91.1z
			 M212.9,71.5l-2.8-1.9l-3,2.6l-3.8,0.1l7-6.3l6.5,4.6L212.9,71.5z"/>
		<path d="M230.6,76.4l-3.1,0.4l-0.3,6.3c0,0.2,0,0.4,0,0.6c0,0.2,0,0.4,0,0.5c0.1,0.5,0.3,0.9,0.7,1s0.7,0.1,1.1,0.1
			c0.3,0,0.6-0.1,0.9-0.2s0.5-0.2,0.7-0.2l-0.2,4.6c-0.5,0.1-0.9,0.3-1.5,0.4c-0.5,0.1-1.2,0.3-2,0.4c-0.6,0.1-1.2,0.1-1.7,0.1
			s-0.9-0.1-1.2-0.2c-0.4-0.1-0.7-0.2-0.9-0.4c-0.3-0.2-0.5-0.4-0.8-0.6c-0.3-0.3-0.6-0.6-0.8-1s-0.4-1-0.5-1.8c0-0.1,0-0.2,0-0.2
			c0-0.1,0-0.3,0-0.4c0-0.2,0-0.4,0-0.7c0-0.3,0-0.7,0-1.2l0.3-6.3l-2.4,0.3l0.2-4.4l2.8-0.3l0.6-4.8l5.5-1.2l-0.2,5.3l3.1-0.4
			L230.6,76.4z"/>
		<g>
			<path d="M141.6,128.9l-6.1,0.7l0.1-2.7c-0.4,0.8-0.9,1.5-1.4,2s-0.9,0.9-1.4,1.1s-0.8,0.4-1.2,0.5c-0.3,0.1-0.6,0.1-0.7,0.1
				c-0.4,0.1-1,0-1.7-0.1c-0.7-0.1-1.3-0.4-2-0.8c-0.7-0.4-1.3-1.1-1.8-1.9c-0.5-0.9-0.9-2-1.1-3.4c-0.2-1.2-0.1-2.6,0.1-3.9
				c0.2-1.4,0.6-2.6,1.1-3.8c0.6-1.2,1.3-2.2,2.3-3c0.9-0.8,2.1-1.3,3.4-1.5c0.7-0.1,1.4-0.1,1.9,0c0.5,0.1,0.9,0.2,1.3,0.4
				c0.3,0.2,0.6,0.4,0.8,0.7c0.2,0.3,0.4,0.5,0.6,0.8l0.3-8.2l6.5-0.8L141.6,128.9z M135.6,118.5c0-0.5-0.1-1-0.2-1.3
				c-0.2-0.3-0.4-0.5-0.6-0.6c-0.2-0.1-0.5-0.2-0.7-0.2s-0.4,0-0.5,0c-0.5,0.1-1,0.3-1.3,0.7c-0.3,0.4-0.6,0.9-0.8,1.5
				c-0.1,0.4-0.2,0.8-0.2,1.3c-0.1,0.5-0.1,1-0.1,1.6c0,0.5,0,1,0,1.4s0,0.8,0.1,1c0,0.1,0,0.3,0.1,0.5c0.1,0.3,0.2,0.5,0.3,0.8
				c0.1,0.3,0.3,0.5,0.6,0.6c0.3,0.2,0.6,0.2,1.1,0.2c0.4-0.1,0.8-0.2,1-0.4c0.3-0.2,0.5-0.5,0.6-0.7c0.2-0.3,0.3-0.5,0.3-0.8
				c0.1-0.3,0.1-0.5,0.1-0.7L135.6,118.5z"/>
			<path d="M150.2,109.2l-3.2,5.5l-2.6,0.3l2.5-4.9l-2.3,0.3l0.2-5.4l5.6-0.7L150.2,109.2z"/>
			<path d="M155.6,119.8c0,0.1,0,0.3,0,0.5c0,0.2,0,0.4,0,0.6c0.1,0.4,0.2,0.8,0.4,1c0.2,0.3,0.4,0.5,0.7,0.7
				c0.3,0.2,0.6,0.3,0.9,0.3s0.6,0,0.9,0c0.5-0.1,0.9-0.2,1.2-0.4c0.3-0.2,0.6-0.4,0.8-0.7c0.2-0.2,0.4-0.5,0.5-0.8
				c0.1-0.3,0.2-0.5,0.2-0.6l5.9,0.2c-0.1,0.3-0.2,0.6-0.4,1s-0.4,0.8-0.7,1.2c-0.3,0.4-0.6,0.9-1.1,1.3c-0.4,0.5-1,0.9-1.7,1.4
				c-0.4,0.3-1,0.6-1.8,1s-1.7,0.6-2.9,0.8c-1.3,0.2-2.4,0.1-3.5-0.1s-2.1-0.7-2.9-1.3s-1.5-1.4-2.1-2.3c-0.6-1-0.9-2.1-1.1-3.3
				c-0.2-1.3-0.1-2.6,0.2-3.8c0.3-1.2,0.9-2.4,1.6-3.4c0.8-1,1.7-1.9,2.9-2.6s2.5-1.1,4.1-1.3c1.4-0.2,2.6-0.1,3.8,0.2
				c1.1,0.3,2.1,0.8,2.9,1.4c0.8,0.7,1.5,1.5,2,2.4c0.5,1,0.8,2,1,3.2c0,0.4,0.1,0.7,0.1,1c0,0.3,0,0.6,0,0.9L155.6,119.8z
				 M160.8,115.8c0-0.1,0-0.3,0-0.4c0-0.2,0-0.3,0-0.4c0-0.2-0.1-0.5-0.2-0.7c-0.1-0.3-0.3-0.5-0.5-0.7c-0.2-0.2-0.4-0.4-0.7-0.5
				c-0.3-0.1-0.6-0.2-1.1-0.1c-0.1,0-0.3,0.1-0.6,0.1c-0.3,0.1-0.6,0.2-0.9,0.5c-0.3,0.2-0.5,0.6-0.8,1c-0.2,0.5-0.4,1-0.4,1.8
				L160.8,115.8z"/>
			<path d="M174.8,107.5l-0.1,2.8c0.1-0.3,0.2-0.7,0.4-1.1c0.2-0.4,0.5-0.8,1-1.2c0.6-0.5,1.3-0.9,2-1.2c0.7-0.2,1.3-0.4,1.8-0.4
				c1.5-0.2,2.8,0.1,3.7,0.7c1,0.7,1.5,1.6,1.7,2.9c0,0.2,0,0.4,0.1,0.8c0,0.3,0,0.7,0,1l-0.5,11.9l-6.5,0.8l0.4-10.5
				c0-0.2,0-0.4,0-0.7s0-0.5,0-0.7c0-0.3-0.2-0.6-0.4-0.9s-0.7-0.4-1.3-0.3c-0.8,0.1-1.3,0.4-1.6,1c-0.3,0.6-0.5,1.2-0.5,2.1
				l-0.5,10.5l-6.4,0.8l0.8-17.5L174.8,107.5z"/>
			<path d="M204.3,108.3l-4.3,0.5l-0.6,13l-6.3,0.8l0.6-13l-2.8,0.3l0.2-4.5l2.8-0.3c0-1.2,0.1-2.1,0.3-3c0.1-0.8,0.5-1.6,1.1-2.3
				c0.4-0.5,0.8-0.9,1.3-1.2c0.5-0.3,1-0.6,1.5-0.8c0.5-0.2,1-0.4,1.5-0.5c0.5-0.1,0.9-0.2,1.3-0.2c0.7-0.1,1.4-0.1,2.3-0.1
				c0.8,0,1.6,0.1,2.3,0.2l0.1,4.2c-0.5,0-1,0-1.5,0s-0.9,0-1.3,0.1c-0.6,0.1-1.1,0.2-1.4,0.4c-0.3,0.2-0.6,0.4-0.8,0.6
				c-0.2,0.2-0.3,0.5-0.3,0.9c0,0.3-0.1,0.7-0.1,1.2l4.2-0.5L204.3,108.3z"/>
			<path d="M204.6,108.2c0.1-0.4,0.3-0.9,0.6-1.5c0.3-0.6,0.7-1.2,1.3-1.8c0.6-0.6,1.5-1.1,2.5-1.6c1.1-0.5,2.5-0.8,4.2-1.1
				c0.6-0.1,1.4-0.1,2.3-0.1s1.8,0.1,2.7,0.3c0.9,0.2,1.6,0.7,2.3,1.3c0.7,0.6,1.1,1.4,1.2,2.6c0,0.3,0,0.7,0,1.3s0,1.3-0.1,2
				c0,0.8-0.1,1.6-0.1,2.4c0,0.8-0.1,1.6-0.1,2.4c0,0.7-0.1,1.4-0.1,2c0,0.6,0,1,0,1.3s0.1,0.6,0.2,0.8c0.1,0.2,0.1,0.5,0.2,0.7
				L215,120c-0.1-0.2-0.1-0.3-0.1-0.5c0-0.2,0-0.3,0-0.4c0-0.2,0-0.4-0.1-0.7c0-0.3,0-0.7,0-1.3c-0.2,0.3-0.3,0.7-0.6,1.1
				c-0.2,0.4-0.6,0.8-1,1.2s-0.9,0.7-1.5,1s-1.3,0.5-2.2,0.6c-0.7,0.1-1.5,0.1-2.1-0.1c-0.7-0.1-1.3-0.4-1.9-0.8
				c-0.6-0.4-1-0.8-1.4-1.4c-0.4-0.6-0.6-1.2-0.7-2c-0.1-0.5,0-1,0-1.6c0.1-0.6,0.3-1.2,0.6-1.7c0.3-0.6,0.8-1.2,1.4-1.7
				s1.5-1,2.5-1.4c0.4-0.1,0.7-0.3,1-0.3c0.3-0.1,0.6-0.2,1.1-0.3c0.4-0.1,1-0.2,1.8-0.4c0.7-0.2,1.8-0.4,3.1-0.7
				c0-0.2,0.1-0.3,0.1-0.5c0-0.2,0-0.3,0-0.5c0-0.3-0.2-0.6-0.5-0.9c-0.3-0.3-0.9-0.4-1.6-0.3c-0.5,0.1-0.9,0.2-1.2,0.4
				c-0.3,0.2-0.6,0.4-0.8,0.6c-0.2,0.2-0.3,0.5-0.5,0.7c-0.1,0.2-0.2,0.4-0.2,0.6L204.6,108.2z M212.2,116.5c0.2,0,0.6-0.1,1-0.3
				c0.4-0.2,0.8-0.6,1.1-1.1c0.3-0.5,0.4-1,0.5-1.6c0-0.6,0.1-1.2,0.1-1.8c-0.5,0.1-1,0.2-1.5,0.4s-1,0.4-1.5,0.6
				c-0.4,0.3-0.8,0.6-1.1,1c-0.3,0.4-0.4,0.9-0.3,1.5c0.1,0.5,0.3,0.9,0.6,1C211.5,116.5,211.9,116.6,212.2,116.5z"/>
			<path d="M230.2,118.1l-6.6,0.8l0.7-17.5l6.7-0.8L230.2,118.1z M231,99l-6.6,0.8l0.2-5.1l6.6-0.8L231,99z"/>
			<path d="M238.9,99.6l-0.2,4.2c0.1-0.4,0.3-0.9,0.5-1.5c0.2-0.6,0.5-1.1,0.8-1.6c0.4-0.5,0.8-1,1.4-1.4c0.6-0.4,1.3-0.7,2.2-0.8
				c0.1,0,0.2,0,0.3,0s0.3,0,0.5,0v6.2c-0.4,0-0.7,0-0.8,0.1c-0.1,0-0.3,0-0.4,0c-0.4,0.1-0.9,0.1-1.3,0.3c-0.5,0.1-0.9,0.3-1.2,0.7
				c-0.4,0.4-0.7,0.8-0.9,1.5c-0.3,0.6-0.4,1.5-0.5,2.6L239,117l-6.5,0.8l0.8-17.5L238.9,99.6z"/>
			<path d="M250.8,108.1c0,0.1,0,0.3,0,0.5s0,0.4,0,0.6c0.1,0.4,0.2,0.8,0.4,1c0.2,0.3,0.4,0.5,0.7,0.7c0.3,0.2,0.6,0.3,0.9,0.3
				s0.6,0,0.9,0c0.5-0.1,0.9-0.2,1.2-0.4c0.3-0.2,0.6-0.4,0.8-0.7c0.2-0.2,0.4-0.5,0.5-0.8c0.1-0.3,0.2-0.5,0.2-0.6l5.9,0.2
				c-0.1,0.3-0.2,0.6-0.4,1c-0.2,0.4-0.4,0.8-0.7,1.2c-0.3,0.4-0.6,0.9-1.1,1.3c-0.4,0.5-1,0.9-1.7,1.4c-0.4,0.3-1,0.6-1.7,1
				c-0.8,0.4-1.7,0.6-2.9,0.8c-1.3,0.2-2.4,0.1-3.5-0.1s-2.1-0.7-2.9-1.3s-1.5-1.4-2.1-2.3c-0.6-1-0.9-2.1-1.1-3.3
				c-0.2-1.3-0.1-2.6,0.2-3.8c0.3-1.2,0.9-2.4,1.6-3.4c0.8-1,1.7-1.9,2.9-2.6c1.2-0.7,2.5-1.1,4.1-1.3c1.4-0.2,2.6-0.1,3.8,0.2
				c1.1,0.3,2.1,0.8,2.9,1.4c0.8,0.7,1.5,1.5,2,2.4c0.5,1,0.8,2,1,3.2c0,0.4,0.1,0.7,0.1,1c0,0.3,0,0.6,0,0.9L250.8,108.1z
				 M256,104.1c0-0.1,0-0.3,0-0.4c0-0.2,0-0.3,0-0.4c0-0.2-0.1-0.5-0.2-0.7c-0.1-0.3-0.3-0.5-0.5-0.7c-0.2-0.2-0.4-0.4-0.7-0.5
				c-0.3-0.1-0.6-0.2-1.1-0.1c-0.1,0-0.3,0.1-0.6,0.1c-0.3,0.1-0.6,0.2-0.9,0.5c-0.3,0.2-0.5,0.6-0.8,1c-0.2,0.5-0.4,1-0.4,1.8
				L256,104.1z"/>
		</g>
	</g>
</g>
<g>
	<path class="st6" d="M104.8,159.6V0H0v190.3l88.6-10.9C88.6,179.4,104.8,176.9,104.8,159.6"/>
	<path class="st3" d="M45.1,156.8l-0.4,7.5c0,0.8-0.1,2.1-1.6,2.3c-0.1,0-0.2,0-0.2,0c-0.4,0-0.7-0.1-0.9-0.3
		c-0.4-0.4-0.4-1.1-0.3-1.7l0.4-7.3l-6.3,0.8l-0.4,8.2c-0.1,1.6,0.3,2.9,1.2,3.8c1,1.1,2.8,1.8,4.9,1.7c0.4,0,0.8,0,1.3-0.1
		c5.8-0.7,8-4.5,8.2-7.6l0.4-8L45.1,156.8z"/>
	<polygon class="st3" points="54.1,155.7 53.3,170 59.6,169.2 60.4,154.9 	"/>
	<path class="st3" d="M56.7,153.1c0.2,0,0.4,0,0.5,0c1.7-0.2,3.6-1.3,3.8-3.7c0-0.8-0.2-1.4-0.6-1.9c-0.5-0.5-1.2-0.8-2.2-0.8
		c-0.2,0-0.3,0-0.5,0c-2.1,0.3-3.7,1.7-3.8,3.7c0,0.8,0.1,1.5,0.6,2C55.1,153,56.1,153.1,56.7,153.1"/>
	<path class="st3" d="M93.1,150.9l-6.4,0.8l-3.8,6l-0.7,0.1l0.8-15.1l-4.1,0.5c0,0-1.1,0.1-1.6,0.8l0,0c-0.6,0.6-0.7,1.7-0.7,1.7
		l-1.2,21.5l6.3-0.8l0.3-5.5l0.6-0.1l2.9,4c0.1,0.1,0.8,0.9,2.1,0.9c0.1,0,0.2,0,0.4,0l4.8-0.6l-4.9-6.7L93.1,150.9z"/>
	<path class="st3" d="M31.1,168.9l0.2-0.2c1.3-1.9,2-4.1,2.2-6.5c0.2-2.9-0.6-5.2-2.1-6.9s-3.8-2.6-6.7-2.5c-0.5,0-1,0-1.5,0.1
		c-6.4,0.8-11.2,5.9-11.6,12.1c-0.2,2.8,0.6,5.1,2.1,6.8s3.8,2.6,6.4,2.5c0.4,0,0.9,0,1.3-0.1c2.1-0.3,3.9-0.8,5.5-1.7l0.2-0.1
		l1.8,1.8c0,0,0.7,0.9,1.5,1.2c0.5,0.2,1.2,0.2,1.5,0.2c0.2,0,0.4,0,0.4,0l4.5-0.6L31.1,168.9z M23.4,167.7c-0.3,0.1-1,0.3-1.3,0.3
		c-0.1,0-0.3,0-0.4,0c-0.9,0-1.7-0.3-2.4-1c-0.7-0.8-1.1-1.9-1-3.2c0.1-2.6,1.9-4.5,4.3-4.8c1.2-0.1,2.3,0.2,3,1
		c0.7,0.7,1,1.8,1,3.1c0,0.6-0.1,1.1-0.3,1.6l-4.6,0.7l1.4,1.3l0.8,0.8L23.4,167.7z"/>
	<path class="st3" d="M95.8,113.6c-11.1,7.8-23.6,5-31.4,2c16.7-5.6,28-21.6,28-40.5c0-23.6-18-42.7-41.2-42.7S10,51.5,10,75.1
		c0,15,6.9,28.2,18.4,35.8c-7.3,1.9-13,5.2-16.6,8.5l5,8.4c3-1.6,12.4-5.3,23.5-1.4c12.3,4.3,18.1,8.6,29.6,9.3
		c19.8,1.2,25.9-14.2,27.1-21.1L95.8,113.6z M51.3,100.5c-11,0-18.6-12.3-18.6-25.5s7.6-25.5,18.6-25.5S69.9,61.8,69.9,75
		C69.9,88.2,62.3,100.5,51.3,100.5"/>
	<polyline class="st3" points="72.8,167.3 72.8,167.3 72.8,167.3 72.8,167.3 	"/>
	<path class="st3" d="M67.5,161c0,0.5,0,1,0.2,1.4c0.1,0.2,0.2,0.4,0.4,0.6c0.6,0.6,1.5,0.8,2.1,0.8c0.2,0,0.4,0,0.6,0
		c0.9-0.1,1.8-0.4,2.5-1l-0.5,4.6l0,0c-1.1,0.6-2.3,0.9-3.7,1.1c-0.3,0-0.6,0.1-0.9,0.1c-1.9,0-3.5-0.6-4.6-1.8
		c-1.1-1.2-1.6-2.9-1.5-4.8c0.1-1.6,0.6-3.2,1.5-4.5c1.5-2.2,3.9-3.8,6.8-4.2c0.4,0,0.7-0.1,1.1-0.1c0.9,0,1.7,0.1,2.4,0.3l-0.2,4.4
		c-0.5-0.3-1.1-0.5-1.8-0.5c-0.2,0-0.3,0-0.5,0c-0.5,0.1-0.9,0.2-1.3,0.3C68.5,158.3,67.6,159.5,67.5,161"/>
	<path class="st3" d="M92.4,133.3L92.4,133.3c0-1.3,1-2.4,2.4-2.4c1.3,0,2.4,1.1,2.4,2.4l0,0c0,1.3-1,2.4-2.4,2.4
		C93.5,135.6,92.4,134.6,92.4,133.3 M96.9,133.3L96.9,133.3c0-1.2-0.9-2.1-2.1-2.1c-1.2,0-2.1,1-2.1,2.1l0,0c0,1.2,0.9,2.1,2.1,2.1
		S96.9,134.4,96.9,133.3 M93.8,132.3c0-0.2,0.1-0.3,0.3-0.3H95c0.6,0,1,0.3,1,0.8c0,0.4-0.2,0.6-0.5,0.7l0.4,0.4
		C96,134,96,134,96,134.1c0,0.2-0.1,0.3-0.3,0.3c-0.1,0-0.2-0.1-0.2-0.1l-0.6-0.7h-0.4v0.5c0,0.2-0.1,0.3-0.3,0.3s-0.3-0.1-0.3-0.3
		L93.8,132.3L93.8,132.3z M94.9,133.2c0.3,0,0.4-0.1,0.4-0.3c0-0.2-0.2-0.3-0.4-0.3h-0.5v0.7h0.5V133.2z"/>
</g>
</svg>
